<svg width="800" height="800" viewBox="0 0 64 64" xmlns="http://www.w3.org/2000/svg"><circle cx="32" cy="35" r="23" fill="#e5efef"/><path fill="none" stroke="#4c241d" stroke-linecap="round" stroke-linejoin="round" stroke-width="2" d="M9 8v2m0 4v2m-4-4h2m4 0h2"/><circle cx="54.5" cy="32.5" r="2.5" fill="none" stroke="#4c241d" stroke-linecap="round" stroke-linejoin="round" stroke-width="2"/><path d="M8.082 28.667A1.069 1.069 0 117.013 27.6a1.07 1.07 0 011.069 1.067zM57.151 51.6a1.069 1.069 0 11-1.069-1.069 1.069 1.069 0 011.069 1.069z" fill="#4c241d"/><path d="M20.764 30.577a5.627 5.627 0 00-3.689 5.268c-.016 2.429-.023 5.2-.023 5.57 0 10.185 6.055 18.442 13.524 18.442S44.1 51.6 44.1 41.415c0-.365-.008-3.144-.023-5.574a5.626 5.626 0 00-3.691-5.268 28.151 28.151 0 00-19.622.004z" fill="#fff" stroke="#4c241d" stroke-linecap="round" stroke-linejoin="round" stroke-width="2"/><path d="M31.93 50.762c.071-.522 1.1-1.058 1.757-.97l1.9.257a1.2 1.2 0 001.346-1.025h0m-7.863 1.738c-.071-.522-1.1-1.058-1.757-.97l-1.9.257a1.2 1.2 0 01-1.347-1.025h0" fill="none" stroke="#4c241d" stroke-linecap="round" stroke-linejoin="round" stroke-width="2"/><path d="M32.9 26.356l3.558.274a9.618 9.618 0 018.733 11.26l-1.253 7.1a1.134 1.134 0 01-1.116.936h0a1.133 1.133 0 01-1.13-1.22l.478-6.214a7.749 7.749 0 00-6.045-8.158l-3.225-.716z" fill="#bf7e68" stroke="#4c241d" stroke-linecap="round" stroke-linejoin="round" stroke-width="2"/><path d="M36.165 27.444S32.853 36.5 19.856 34.7l-.974 9.086a1.183 1.183 0 01-1.176 1.057h0a1.183 1.183 0 01-1.181-1.109l-.657-10.5a4 4 0 013.988-4.334h0a4.72 4.72 0 014.72-4.72H32.9a3.262 3.262 0 013.262 3.262z" fill="#bf7e68" stroke="#4c241d" stroke-linecap="round" stroke-linejoin="round" stroke-width="2"/><path d="M48.106 9.245a3.462 3.462 0 00-5.383-2.908 4.609 4.609 0 00-6.74-1.119 3.461 3.461 0 00-6.024.983l-.051-.011a4.624 4.624 0 10-1.515 9.124 4.571 4.571 0 001.165.04L28.4 22.347 43.8 24.9l1.161-6.993a4.622 4.622 0 103.15-8.666z" fill="#fff" stroke="#4c241d" stroke-linecap="round" stroke-linejoin="round" stroke-width="2"/><path d="M33.624 19.4l-1.16 8.117a21.457 21.457 0 005.575.86l1.151-8.052z" fill="#fff" stroke="#4c241d" stroke-linecap="round" stroke-linejoin="round" stroke-width="2"/><path d="M29.014 18.633l-1.137 6.843a18.991 18.991 0 004.587 2.039l1.16-8.117z" fill="#9dc1e4" stroke="#4c241d" stroke-linecap="round" stroke-linejoin="round" stroke-width="2"/><path d="M39.19 20.323l-1.151 8.052a28.31 28.31 0 005.236-.342l1.137-6.843z" fill="#f53e28" stroke="#4c241d" stroke-linecap="round" stroke-linejoin="round" stroke-width="2"/></svg>